<svg width="20" height="20" viewBox="0 0 13 17" fill="none" xmlns="http://www.w3.org/2000/svg">
<path d="M11.3656 5.71298C11.2563 4.01341 9.81063 3.3994 7.96914 3.17927L8.04298 0.828437L6.61275 0.78412L6.54031 3.07299C6.16437 3.06054 5.78036 3.05641 5.39714 3.05211L5.47045 0.748259L4.04005 0.703157L3.96604 3.0532C3.65611 3.0495 3.35124 3.04635 3.05478 3.03645L3.05482 3.02904L1.08133 2.96652L1.03349 4.49453C1.03349 4.49453 2.09111 4.50759 2.07296 4.52631C2.65248 4.5449 2.83006 4.88716 2.87605 5.17976L2.7923 7.85747C2.83204 7.85875 2.8838 7.86236 2.94336 7.87168L2.79199 7.86741L2.67399 11.6188C2.64245 11.8 2.52618 12.0874 2.12077 12.0755C2.13915 12.0921 1.08113 12.0429 1.08113 12.0429L0.743099 13.7422L2.60557 13.8008C2.9517 13.8123 3.29241 13.8291 3.62642 13.8415L3.55251 16.2187L4.98196 16.2632L5.0558 13.9123C5.44809 13.9319 5.82785 13.9468 6.19874 13.9587L6.12443 16.2998L7.55466 16.3441L7.62959 13.9717C10.0398 13.9094 11.7421 13.3564 12.0222 11.104C12.2484 9.29079 11.4183 8.45162 10.0631 8.08114C10.9065 7.68506 11.448 6.95715 11.3656 5.71298ZM9.20353 10.7334C9.14946 12.5102 6.113 12.2122 5.14307 12.1826L5.24313 9.03274C6.2134 9.06386 9.26257 8.88068 9.20353 10.7334ZM8.67811 6.2685C8.62723 7.88513 6.09605 7.61597 5.289 7.59066L5.37865 4.73491C6.1857 4.76021 8.73122 4.58233 8.67811 6.2685Z" fill="#DB953C"/>
</svg>
