<svg width="15" height="14" viewBox="0 0 11 12" fill="none" xmlns="http://www.w3.org/2000/svg">
<path d="M4.26716 6.33194L4.26712 6.33197L4.26795 6.33303L4.26922 6.3348C4.37514 6.47779 4.43242 6.65098 4.4328 6.8291C4.4328 6.82913 4.4328 6.82917 4.4328 6.82921L4.4328 10.5801V10.5803H4.5328M4.26716 6.33194L5.1513 11.06M4.26716 6.33194L4.26468 6.32849M4.26716 6.33194L4.26468 6.32849M4.5328 10.5803C4.53211 10.6915 4.57573 10.7981 4.65406 10.877C4.73238 10.9558 4.83887 11 4.94991 11C5.00642 11 5.06224 10.9887 5.11439 10.9671L6.94979 10.2672M4.5328 10.5803V6.82901V10.5803ZM6.94979 10.2672L6.97896 10.3629C6.98012 10.3625 6.98127 10.3622 6.98242 10.3618M6.94979 10.2672L6.98542 10.3606L6.98242 10.3618M6.94979 10.2672C7.11427 10.217 7.22343 10.0619 7.22343 9.87499V6.82901M6.98242 10.3618L5.1513 11.06M6.98242 10.3618C7.1912 10.2964 7.32343 10.1001 7.32343 9.87499V6.82916M5.1513 11.06C5.15176 11.0598 5.15222 11.0597 5.15268 11.0595L5.1144 10.9671L5.15002 11.0605L5.1513 11.06ZM7.32343 6.82916L7.22343 6.82901M7.32343 6.82916C7.3237 6.65117 7.38106 6.47783 7.48694 6.33477L7.48699 6.33481L7.48855 6.33254M7.32343 6.82916V6.82901H7.22343M7.22343 6.82901L7.48855 6.33254M7.48855 6.33254L7.49146 6.32849M7.48855 6.33254L10.7091 1.22744L10.7981 1.18173C10.8881 1.35685 10.8723 1.56755 10.7575 1.72737L10.7577 1.72712L10.6761 1.66924L10.7573 1.72764L7.49233 6.32727M7.48855 6.33254C7.48808 6.33318 7.48811 6.33314 7.48837 6.33278C7.48851 6.33258 7.48873 6.33227 7.48896 6.33193L7.48855 6.33254ZM7.49146 6.32849L7.49147 6.3285L7.49233 6.32727M7.49146 6.32849L7.40994 6.27063L7.49233 6.32727M7.49146 6.32849L7.49233 6.32727M4.26468 6.32849L4.26466 6.32851L0.998738 1.72781C0.998676 1.72773 0.998614 1.72764 0.998552 1.72755C0.883733 1.56766 0.867962 1.35687 0.957969 1.18174L4.26468 6.32849ZM10.3356 0.900001H1.42029H1.4202V1C1.26295 0.999703 1.1188 1.08755 1.04691 1.22744L10.3356 0.900001ZM6.61561 6.82882V6.82901V9.74442L5.14043 10.3069L5.14043 6.82901L5.14043 6.82882C5.13979 6.5003 5.03451 6.18054 4.83969 5.91596L1.78128 1.60763H9.97475L6.91624 5.91597C6.72152 6.18054 6.61624 6.50029 6.61561 6.82882Z" stroke="#C78D4E" stroke-width="0.2"/>
</svg>
